<svg xmlns="http://www.w3.org/2000/svg" viewBox="0 0 54.01 114.81"><title>Five</title><g id="Layer_2" data-name="Layer 2"><g id="Layer_1-2" data-name="Layer 1"><path d="M17.18,15.23C48.82,35.32,58.09,52.07,52.47,77c-4.56,20.19-21.08,35.19-42.2,37.82-.7-3.79-1.4-7.62-2.23-12.16C20.33,99.77,30.09,94,36,82.92a36.74,36.74,0,0,0,3.73-24.19C36.75,41,23.11,30.26,0,28.06A210,210,0,0,1,10,0H45.29c-.75,2.84-1.42,5.12-1.94,7.45-1,4.25-3.34,6.21-7.87,5.87a94.38,94.38,0,0,0-12,.06C21.84,13.47,20.26,14.29,17.18,15.23Z"/></g></g></svg>